<svg width="379" height="334" viewBox="0 0 379 334" fill="none" xmlns="http://www.w3.org/2000/svg">
<g id="klocek kolor (1) 1">
<g clip-path="url(#clip0)">
<path id="x-line" class='x-line' d="M25.54 316.31L42.54 299.46C43.9253 298.04 44.7128 296.143 44.74 294.16C44.7379 292.677 44.2966 291.227 43.4719 289.995C42.6472 288.762 41.4759 287.801 40.1058 287.233C38.7356 286.665 37.228 286.516 35.773 286.803C34.318 287.091 32.9808 287.803 31.93 288.85L14.93 305.7C13.5446 307.12 12.7571 309.017 12.73 311C12.7321 312.483 13.1733 313.933 13.9981 315.165C14.8228 316.398 15.9941 317.359 17.3642 317.927C18.7343 318.495 20.242 318.644 21.697 318.357C23.152 318.069 24.4892 317.357 25.54 316.31V316.31Z" fill="black"/>
<path id="x-line_3" class='x-line' d="M85.81 238.66L56.94 264.98C55.5476 266.393 54.767 268.296 54.767 270.28C54.767 272.264 55.5476 274.167 56.94 275.58C58.3665 276.95 60.2674 277.714 62.245 277.714C64.2225 277.714 66.1235 276.95 67.55 275.58L96.42 249.26C97.8124 247.847 98.593 245.944 98.593 243.96C98.593 241.976 97.8124 240.073 96.42 238.66C94.9935 237.29 93.0925 236.526 91.115 236.526C89.1374 236.526 87.2365 237.29 85.81 238.66V238.66Z" fill="black"/>

<path id="x-line_2" class='x-line' d="M121.57 229.07L130.63 222.61C131.923 221.885 132.961 220.778 133.602 219.441C134.243 218.104 134.455 216.602 134.21 215.14C134.17 214.147 133.863 213.183 133.32 212.35C132.327 210.666 130.722 209.43 128.84 208.9C127.875 208.628 126.866 208.555 125.872 208.686C124.878 208.817 123.922 209.148 123.06 209.66L114 216.12C112.707 216.845 111.669 217.952 111.028 219.289C110.387 220.626 110.175 222.128 110.42 223.59C110.464 224.582 110.772 225.545 111.31 226.38C112.303 228.064 113.908 229.3 115.79 229.83C116.755 230.102 117.765 230.176 118.758 230.045C119.752 229.914 120.709 229.583 121.57 229.07V229.07Z" fill="black"/>
<path id="z-line" class="z-line" d="M165.42 197.72C175.798 196.729 186.255 196.921 196.59 198.29L194.59 198.03C195.59 198.16 196.52 198.3 197.49 198.45C199.45 198.935 201.521 198.675 203.3 197.72C204.151 197.224 204.896 196.565 205.493 195.78C206.089 194.996 206.525 194.102 206.776 193.149C207.026 192.197 207.087 191.204 206.954 190.228C206.821 189.251 206.497 188.311 206 187.46C205 185.93 203.4 184.31 201.51 184.01C189.581 182.079 177.457 181.646 165.42 182.72C163.444 182.775 161.558 183.554 160.12 184.91C158.725 186.327 157.936 188.232 157.92 190.22C158.09 193.96 161.24 198.11 165.42 197.72Z" fill="black"/>
<path id="z-line_2" class="z-line" d="M237.75 198.45L269.47 199.18C271.453 199.162 273.351 198.366 274.753 196.963C276.156 195.561 276.952 193.663 276.97 191.68C276.929 189.704 276.126 187.82 274.728 186.422C273.33 185.024 271.446 184.221 269.47 184.18L237.75 183.45C235.766 183.466 233.867 184.261 232.464 185.664C231.061 187.067 230.266 188.966 230.25 190.95C230.286 192.928 231.088 194.815 232.486 196.214C233.885 197.612 235.772 198.414 237.75 198.45V198.45Z" fill="black"/>
<path id="z-line_3" class="z-line" d="M303.38 201.85H319.22C321.203 201.823 323.1 201.035 324.52 199.65C325.568 198.601 326.281 197.265 326.57 195.811C326.859 194.357 326.71 192.85 326.143 191.481C325.576 190.111 324.615 188.94 323.383 188.116C322.151 187.292 320.702 186.851 319.22 186.85H303.38C301.397 186.877 299.5 187.665 298.08 189.05C297.032 190.099 296.319 191.435 296.03 192.889C295.742 194.343 295.89 195.85 296.457 197.219C297.024 198.589 297.985 199.76 299.217 200.584C300.449 201.408 301.898 201.849 303.38 201.85V201.85Z" fill="black"/>
<path id="z-line_4" class="z-line" d="M348.62 202.17H371.24C375.17 202.17 378.93 198.72 378.74 194.67C378.709 192.691 377.909 190.801 376.509 189.401C375.109 188.001 373.219 187.201 371.24 187.17H348.62C344.7 187.17 340.94 190.62 341.12 194.67C341.156 196.648 341.958 198.535 343.356 199.934C344.755 201.332 346.642 202.134 348.62 202.17Z" fill="black"/>
<path id="Vector" d="M6.99 93.19C6.83667 123.19 6.45 153.19 5.83 183.19C5.21 213.19 4.33332 243.107 3.19999 272.94C2.88666 281.193 2.55332 289.45 2.19999 297.71C2.03332 301.83 1.85666 305.953 1.66999 310.08C1.48999 314.08 1.45999 318.08 0.969995 321.96L1.24 319.96C1.12595 320.961 0.904674 321.946 0.579995 322.9L1.33999 321.11C1.24411 321.337 1.1339 321.557 1.01 321.77C-0.989997 325.15 0.12999 330.14 3.69999 332.03C5.42569 332.997 7.45929 333.257 9.37287 332.756C11.2865 332.254 12.9308 331.029 13.96 329.34C15.96 325.94 16.12 321.66 16.31 317.83C16.5 314 16.65 310.36 16.82 306.62C17.1533 299.033 17.4667 291.44 17.76 283.84C18.3733 268.46 18.9167 253.077 19.39 237.69C20.35 206.817 21.0467 175.937 21.48 145.05C21.72 127.717 21.8833 110.417 21.97 93.15C21.97 89.23 18.5 85.47 14.47 85.65C12.4913 85.6834 10.603 86.4843 9.20368 87.8837C7.80434 89.283 7.00343 91.1713 6.96999 93.15L6.99 93.19Z" fill="black"/>
<path id="y-line" class='y-line' d="M153.37 19.78V41.37C153.37 45.3 156.82 49.06 160.87 48.87C162.849 48.8391 164.739 48.039 166.139 46.6391C167.539 45.2392 168.339 43.3495 168.37 41.37V19.78C168.37 15.86 164.92 12.1 160.87 12.28C158.892 12.3159 157.005 13.1176 155.606 14.5165C154.208 15.9153 153.406 17.8021 153.37 19.78V19.78Z" fill="black"/>
<path id="y-line_2" class='y-line' d="M151.11 84.56V93.19C151.198 95.1633 151.977 97.0428 153.31 98.5C154.759 99.838 156.639 100.615 158.61 100.69C160.599 100.685 162.506 99.8983 163.92 98.5C165.295 97.0708 166.078 95.1733 166.11 93.19V84.56C166.159 83.5567 165.938 82.5587 165.47 81.67C165.167 80.7448 164.634 79.9119 163.92 79.25C162.465 77.9143 160.583 77.1382 158.61 77.06C156.624 77.0635 154.719 77.8504 153.31 79.25C151.927 80.6749 151.14 82.5743 151.11 84.56V84.56Z" fill="black"/>
<path id="y-line_3" class='y-line'  d="M151.88 122.91L152.61 140.76C152.649 142.739 153.431 144.631 154.8 146.06C156.218 147.454 158.122 148.243 160.11 148.26C162.098 148.257 164.004 147.466 165.41 146.06C166.816 144.654 167.607 142.748 167.61 140.76L166.88 122.91C166.844 120.929 166.058 119.035 164.68 117.61C163.631 116.562 162.295 115.849 160.841 115.56C159.387 115.272 157.88 115.42 156.511 115.987C155.141 116.554 153.97 117.515 153.146 118.747C152.322 119.979 151.881 121.428 151.88 122.91Z" fill="black"/>
<path id="y-line_4" class='y-line' d="M153.37 168.72V185.99C153.397 187.973 154.185 189.87 155.57 191.29C156.619 192.338 157.955 193.051 159.409 193.34C160.863 193.628 162.37 193.48 163.739 192.913C165.109 192.346 166.28 191.385 167.104 190.153C167.928 188.921 168.369 187.472 168.37 185.99V168.72C168.345 166.735 167.561 164.835 166.18 163.41C165.129 162.363 163.792 161.651 162.337 161.363C160.882 161.076 159.374 161.225 158.004 161.793C156.634 162.361 155.463 163.322 154.638 164.555C153.813 165.787 153.372 167.237 153.37 168.72V168.72Z" fill="black"/>
<path id="Vector_2" d="M348.24 7.5C349.067 32.3 350.293 57.0833 351.92 81.85C353.547 106.617 355.57 131.353 357.99 156.06C359.323 169.893 360.8 183.713 362.42 197.52C362.488 199.498 363.269 201.384 364.62 202.83C366.028 204.232 367.933 205.019 369.92 205.019C371.907 205.019 373.812 204.232 375.22 202.83C376.48 201.46 377.64 199.46 377.42 197.52C374.56 172.853 372.093 148.157 370.02 123.43C367.947 98.7033 366.28 73.9433 365.02 49.15C364.3 35.27 363.71 21.3867 363.25 7.5C363.12 3.59 359.89 -0.179997 355.75 2.65799e-06C351.75 0.180003 348.11 3.3 348.25 7.5H348.24Z" fill="black"/>
<path id="Vector_3" d="M237.04 103C252.62 92.2867 268.143 81.4933 283.61 70.62C299.077 59.7467 314.467 48.78 329.78 37.72C338.447 31.4933 347.087 25.23 355.7 18.93C357.346 17.8971 358.567 16.3073 359.14 14.45C359.665 12.5 359.395 10.4215 358.39 8.67C356.39 5.54 351.52 3.51 348.13 5.98C332.87 17.1067 317.537 28.1533 302.13 39.12C286.723 50.0867 271.277 60.97 255.79 71.77C247.017 77.87 238.227 83.95 229.42 90.01C227.767 91.0354 226.544 92.6281 225.98 94.49C225.461 96.4404 225.73 98.5167 226.73 100.27C228.8 103.48 233.54 105.34 236.99 102.96L237.04 103Z" fill="black"/>
<path id="orange-line" class="orange-line" d="M158.16 25.84C163.46 44.77 168.75 63.71 173.77 82.71C178.79 101.71 183.42 120.51 187.69 139.53C191.96 158.55 195.82 177.45 199.35 196.53C202.88 215.61 206.07 234.68 208.93 253.84C209.637 258.56 210.323 263.28 210.99 268L211.99 275.36C212.14 276.5 212.26 277.64 212.45 278.77C212.45 278.77 212.25 277.32 212.37 278.19C212.37 278.47 212.45 278.76 212.48 279.04L212.75 281.04C214.017 290.68 215.21 300.347 216.33 310.04L217.14 317.14C217.204 319.114 217.982 320.997 219.33 322.44C220.747 323.835 222.652 324.624 224.64 324.64C228.33 324.47 232.64 321.32 232.14 317.14C229.92 297.34 227.387 277.577 224.54 257.85C221.773 238.677 218.673 219.56 215.24 200.5C211.78 181.327 207.97 162.223 203.81 143.19C199.65 124.157 195.09 105.133 190.13 86.12C185.13 67 179.88 47.96 174.56 28.94L172.61 21.94C171.55 18.17 167.25 15.45 163.38 16.7C161.481 17.2597 159.873 18.5347 158.896 20.2566C157.918 21.9784 157.647 24.0124 158.14 25.93L158.16 25.84Z" fill="#E94100"/>
<path id="Vector_4" d="M13.46 106.05C41.5067 104.77 69.57 103.86 97.65 103.32C125.557 102.78 153.473 102.603 181.4 102.79C189.213 102.843 197.023 102.923 204.83 103.03L216.83 103.22L222.83 103.33C224.68 103.33 226.59 103.27 228.43 103.48L226.43 103.22C226.967 103.31 227.493 103.454 228 103.65L226.2 102.89C226.59 103.07 226.94 103.31 227.31 103.49C226.22 102.57 225.92 102.37 226.43 102.87C225.6 101.63 225.33 101.33 225.63 101.96L224.88 100.17L224.93 100.38L224.66 98.38C224.691 98.5216 224.691 98.6684 224.66 98.81L224.93 96.81L224.86 97.02L225.62 95.23L226.5 94.15C225.151 95.593 224.369 97.4756 224.3 99.45C224.316 101.438 225.105 103.343 226.5 104.76C227.91 106.159 229.814 106.945 231.8 106.95C233.65 106.87 235.91 106.28 237.11 104.76C238.53 102.94 239.66 101.21 239.66 98.76C239.692 97.2156 239.324 95.6893 238.59 94.33C237.499 92.3779 235.819 90.8204 233.79 89.88C231.597 88.8634 229.207 88.3411 226.79 88.35L221.3 88.24C213.74 88.1 206.18 87.9833 198.62 87.89C183.66 87.71 168.703 87.6333 153.75 87.66C123.75 87.72 93.75 88.1967 63.75 89.09C46.97 89.59 30.2 90.2233 13.44 90.99C9.53001 91.17 5.75001 94.31 5.94001 98.49C6.12001 102.4 9.24001 106.18 13.44 105.99L13.46 106.05Z" fill="black"/>
<path id="Vector_5" d="M165.4 16.3L238.21 15.93L311.02 15.56L351.91 15.35C355.83 15.35 359.59 11.91 359.41 7.85001C359.379 5.87053 358.579 3.98079 357.179 2.58092C355.779 1.18104 353.889 0.380941 351.91 0.350006L279.1 0.720001L206.29 1.09L165.4 1.3C161.47 1.3 157.71 4.74 157.9 8.8C157.931 10.7795 158.731 12.6692 160.131 14.0691C161.531 15.469 163.421 16.2691 165.4 16.3Z" fill="black"/>
<path id="Vector_6" d="M19.3 101.15C38.2733 89.9967 57.2733 78.8867 76.3 67.82C95.2133 56.82 114.14 45.86 133.08 34.94C143.86 28.72 154.647 22.52 165.44 16.34C168.84 14.34 170.31 9.46 168.13 6.08C167.101 4.39052 165.456 3.16612 163.543 2.66441C161.629 2.1627 159.596 2.4228 157.87 3.39C138.73 14.3633 119.62 25.3633 100.54 36.39C81.62 47.3367 62.7233 58.3367 43.85 69.39C33.1367 75.65 22.4333 81.92 11.74 88.2C8.35 90.2 6.85 95.05 9.05 98.46C10.0776 100.151 11.7212 101.378 13.6349 101.881C15.5486 102.385 17.5831 102.126 19.31 101.16L19.3 101.15Z" fill="black"/>
<path id="orange-line_2" class="orange-line"  d="M162.59 197.54C171.41 214.96 179.743 232.627 187.59 250.54C189.85 255.653 192.063 260.787 194.23 265.94L193.48 264.14C199.8 279.133 205.783 294.253 211.43 309.5C213.03 313.833 214.603 318.167 216.15 322.5C216.716 324.364 217.943 325.956 219.6 326.98C221.352 327.983 223.428 328.256 225.38 327.74C229.01 326.56 232.02 322.47 230.62 318.51C224.607 301.537 218.167 284.723 211.3 268.07C204.26 250.997 196.807 234.103 188.94 217.39C184.607 208.177 180.143 199.037 175.55 189.97C173.77 186.46 168.55 185.17 165.28 187.27C163.599 188.31 162.383 189.956 161.882 191.867C161.381 193.779 161.635 195.81 162.59 197.54V197.54Z" fill="#E94100"/>
<path id="Vector_7" d="M220.76 94.72V317.05C220.76 320.97 224.21 324.73 228.26 324.55C230.239 324.517 232.127 323.716 233.526 322.316C234.926 320.917 235.727 319.029 235.76 317.05V94.72C235.76 90.8 232.31 87.04 228.26 87.22C226.281 87.2534 224.393 88.0544 222.994 89.4537C221.594 90.853 220.793 92.7413 220.76 94.72V94.72Z" fill="black"/>
<path id="Vector_8" d="M229.96 329.98L286.7 280.26L343.07 230.87L375.01 202.87C378.01 200.27 377.87 194.87 375.01 192.26C373.583 190.896 371.684 190.134 369.71 190.134C367.736 190.134 365.837 190.896 364.41 192.26L307.66 241.98L251.3 291.38L219.35 319.38C216.35 321.97 216.5 327.38 219.35 329.99C220.781 331.35 222.68 332.109 224.655 332.109C226.63 332.109 228.529 331.35 229.96 329.99V329.98Z" fill="black"/>

<path id="Vector_9" d="M7.51 333.09C35.31 332.75 63.1133 332.523 90.92 332.41C118.727 332.297 146.53 332.297 174.33 332.41C189.99 332.47 205.657 332.57 221.33 332.71C225.25 332.71 229.01 329.23 228.83 325.21C228.794 323.228 227.988 321.338 226.582 319.94C225.177 318.542 223.282 317.746 221.3 317.72C193.487 317.48 165.68 317.35 137.88 317.33C110.08 317.31 82.2767 317.41 54.47 317.63C38.8167 317.75 23.15 317.907 7.46999 318.1C3.54999 318.15 -0.210011 321.52 -0.030011 325.6C0.00342414 327.579 0.804337 329.467 2.20368 330.866C3.60302 332.266 5.4913 333.067 7.46999 333.1L7.51 333.09Z" fill="black"/>
</g>
</g>
<defs>
<clipPath id="clip0">
<rect width="378.75" height="333.09" fill="white"/>
</clipPath>
</defs>
</svg>
