<svg width="1555" height="1002" viewBox="0 0 1555 1002" fill="none" xmlns="http://www.w3.org/2000/svg">
<g id="classroom-svgrepo-com 1">
<g id="Group">
<g id="Group_2">
<path id="Vector" d="M352.307 624.772H166.955C162.335 624.772 158.591 628.556 158.591 633.224V699.075L167.867 693.255C170.228 691.774 172.749 690.775 175.319 690.225V641.675H343.941V763.562H175.32V743.841L158.591 754.336V772.014C158.591 776.682 162.335 780.465 166.955 780.465H352.307C356.926 780.465 360.671 776.682 360.671 772.014V633.224C360.671 628.556 356.926 624.772 352.307 624.772Z" fill="black"/>
</g>
</g>
<g id="Group_3">
<g id="Group_4">
<path id="Vector_2" d="M230.696 671.685C228.495 668.865 224.45 668.383 221.659 670.605L192.847 693.558C195.598 695.375 198.012 697.808 199.859 700.815C200.383 701.666 200.838 702.541 201.242 703.428L229.627 680.815C232.418 678.592 232.896 674.504 230.696 671.685Z" fill="black"/>
</g>
</g>
<g id="Group_5">
<g id="Group_6">
<path id="Vector_3" d="M91.6258 660.651C104.923 660.651 115.702 649.76 115.702 636.325C115.702 622.891 104.923 612 91.6258 612C78.329 612 67.5499 622.891 67.5499 636.325C67.5499 649.76 78.329 660.651 91.6258 660.651Z" fill="black"/>
</g>
</g>
<g id="Group_7">
<g id="Group_8">
<path id="Vector_4" d="M189.992 707.007C186.607 701.501 179.447 699.808 173.995 703.227L150.469 717.985C150.371 698.273 150.423 708.734 150.36 696.039C150.284 680.801 137.953 668.404 122.87 668.404H111.441C101.678 693.988 104.823 684.491 96.5353 706.208L100.021 690.873C100.262 689.725 100.087 688.527 99.5268 687.499L94.8043 678.821L98.9953 671.121C99.6202 669.972 98.7962 668.564 97.4988 668.564H85.9859C84.6892 668.564 83.8636 669.972 84.4894 671.121L88.6886 678.837L83.9571 687.531C83.4083 688.54 83.2288 689.713 83.4505 690.842L86.4699 706.208C84.8422 701.943 73.5902 672.459 72.0424 668.404H60.3825C45.3006 668.404 32.9683 680.801 32.8921 696.039L32.4632 782.266C32.4315 788.748 37.6055 794.029 44.0213 794.062C44.0416 794.062 44.0605 794.062 44.0808 794.062C50.4687 794.062 55.6638 788.846 55.6955 782.384L56.1245 696.158C56.1245 696.144 56.1245 696.13 56.1245 696.117C56.1426 694.837 57.1792 693.812 58.4457 693.822C59.7123 693.831 60.7331 694.872 60.7331 696.151L60.7384 818.316C71.3729 817.859 81.2265 821.735 88.6185 828.541V780.882H94.6369V835.553C98.8761 841.85 101.357 849.449 101.357 857.623C101.357 865.07 99.2976 872.04 95.7263 877.984C99.3948 878.002 102.958 878.494 106.356 879.402C110.936 875.387 116.447 872.431 122.517 870.919C122.517 658.139 122.265 789.699 122.265 696.167C122.265 694.812 123.349 693.714 124.691 693.712C126.032 693.709 127.121 694.802 127.127 696.158C127.168 704.389 127.296 730.122 127.341 739.081C127.362 743.331 129.655 747.238 133.336 749.293C137.011 751.345 141.505 751.239 145.084 748.993L186.251 723.169C191.7 719.751 193.376 712.514 189.992 707.007Z" fill="black"/>
</g>
</g>
<g id="Group_9">
<g id="Group_10">
<path id="students" d="M323.592 883.654C337.666 883.654 349.076 872.126 349.076 857.906C349.076 843.686 337.666 832.158 323.592 832.158C309.517 832.158 298.108 843.686 298.108 857.906C298.108 872.126 309.517 883.654 323.592 883.654Z" fill="black"/>
</g>
</g>
<g id="Group_11">
<g id="Group_12">
<path id="students_2" d="M385.591 921.113C385.511 904.983 372.458 891.86 356.492 891.86C349.604 891.86 298.756 891.86 292.575 891.86C295.317 897.244 296.876 903.339 296.876 909.799C296.876 916.658 295.063 923.824 291.221 930.199C305.473 930.781 317.961 938.509 325.259 949.925H355.852V921.414C355.852 920.011 356.953 918.861 358.341 918.813C359.729 918.765 360.906 919.837 360.999 921.237C360.999 921.237 360.999 921.237 360.999 921.238L361.142 949.925H385.735L385.591 921.113Z" fill="black"/>
</g>
</g>
<g id="Group_13">
<g id="Group_14">
<path id="students_3" d="M218.986 909.798C218.986 903.225 220.598 897.029 223.43 891.578C206.837 891.578 187.354 891.578 166.685 891.578C169.303 896.863 170.784 902.818 170.784 909.119C170.784 916.524 168.726 923.535 165.153 929.481C176.883 929.537 187.704 934.461 195.523 942.633C203.103 935.152 213.435 930.511 224.802 930.45C220.855 924.012 218.986 916.783 218.986 909.798Z" fill="black"/>
</g>
</g>
<g id="Group_15">
<g id="Group_16">
<path id="students_4" d="M199.648 831.874C185.574 831.874 174.163 843.4 174.163 857.622C174.163 871.811 185.553 883.37 199.648 883.37C213.609 883.37 225.133 871.971 225.133 857.622C225.133 843.416 213.745 831.874 199.648 831.874Z" fill="black"/>
</g>
</g>
<g id="Group_17">
<g id="Group_18">
<path id="students_5" d="M92.8939 909.119C92.8939 902.834 94.3685 896.891 96.9733 891.615C95.8748 891.56 100.495 891.578 29.5101 891.578C13.6268 891.578 0.491531 904.632 0.410863 920.831L0.266113 949.925C11.5046 949.925 13.7655 949.925 24.8592 949.925L25.0032 920.956C25.0108 919.521 26.165 918.365 27.5839 918.369C29.0027 918.373 30.1501 919.536 30.1501 920.969V949.925H64.624C72.0537 937.925 84.8286 930.39 98.7329 929.811C94.9588 923.67 92.8939 916.584 92.8939 909.119Z" fill="black"/>
</g>
</g>
<g id="Group_19">
<g id="Group_20">
<path id="students_6" d="M62.4128 831.874C48.3389 831.874 36.9285 843.401 36.9285 857.622C36.9285 871.778 48.2718 883.37 62.4128 883.37C76.3871 883.37 87.8978 871.933 87.8978 857.622C87.8978 843.401 76.4874 831.874 62.4128 831.874Z" fill="black"/>
</g>
</g>
<g id="Group_21">
<g id="Group_22">
<path id="students_7" d="M318.55 972.907C318.471 956.775 305.417 943.653 289.451 943.653C287.758 943.653 226.9 943.653 224.987 943.653C209.022 943.653 195.132 956.775 195.051 972.906L194.844 972.227C194.765 956.161 181.77 942.974 165.745 942.974C147.241 942.974 120.665 942.974 101.281 942.974C85.3164 942.974 71.4257 956.096 71.345 972.227L71.2003 1002H95.7934L95.9374 972.352C95.9434 971.116 96.9378 970.12 98.1599 970.123C99.382 970.126 100.37 971.128 100.37 972.363V1002C114.786 1002 152 1002 165.502 1002V972.363C165.502 971.041 166.561 969.968 167.87 969.965C169.178 969.962 170.244 971.029 170.251 972.351L170.395 1002C175.422 1002 214.3 1002 219.499 1002L219.643 973.03C219.643 973.03 219.643 973.03 219.643 973.029C219.65 971.794 220.645 970.799 221.867 970.802C223.089 970.805 224.076 971.807 224.076 973.042V1002C238.492 1002 275.706 1002 289.208 1002V973.042C289.208 971.72 290.267 970.647 291.576 970.643C292.884 970.64 293.95 971.707 293.957 973.03L294.101 1002H318.694L318.55 972.907Z" fill="black"/>
</g>
</g>
<g id="Group_23">
<g id="Group_24">
<path id="students_8" d="M132.638 935.068C146.877 935.068 158.42 923.405 158.42 909.019C158.42 894.632 146.877 882.969 132.638 882.969C118.398 882.969 106.855 894.632 106.855 909.019C106.855 923.405 118.398 935.068 132.638 935.068Z" fill="black"/>
</g>
</g>
<g id="Group_25">
<g id="Group_26">
<path id="students_9" d="M257.888 935.744C272.127 935.744 283.67 924.082 283.67 909.695C283.67 895.309 272.127 883.646 257.888 883.646C243.649 883.646 232.106 895.309 232.106 909.695C232.106 924.082 243.649 935.744 257.888 935.744Z" fill="black"/>
</g>
</g>
</g>
<g id="maths-svgrepo-com 1">
<g id="Group_27">
<g id="Group_28">
<path id="Vector_5" d="M1093.31 244.4H1277.69V409.65H1093.31V244.4ZM1083.86 430.05H1287.14C1292.38 430.05 1296.59 425.5 1296.59 419.85V234.2C1296.59 228.55 1292.38 224 1287.14 224H1083.86C1078.62 224 1074.41 228.55 1074.41 234.2V419.85C1074.41 425.5 1078.62 430.05 1083.86 430.05Z" fill="black"/>
<path id="Vector_6" d="M1289.55 448.6H1081.45C1076.22 448.6 1072 453.15 1072 458.8C1072 464.45 1076.22 469 1081.45 469H1289.55C1294.78 469 1299 464.45 1299 458.8C1299 453.15 1294.78 448.6 1289.55 448.6Z" fill="black"/>
<path id="Vector_7" d="M1132.87 321.55L1124.3 305.6H1114.71L1128.43 331.55V348.45H1137.27V331.55L1151.03 305.6H1141.44L1132.87 321.55Z" fill="black"/>
<path id="sign" d="M1170.91 312.2H1163.08V323.2H1153.12V330.75H1163.08V341.75H1170.91V330.75H1180.82V323.2H1170.91V312.2Z" fill="black"/>
<path id="sign_2" d="M1221.4 305.6H1210.75L1203.2 318.3L1195.65 305.6H1185.04L1197.45 326.5L1184.11 348.45H1194.77L1203.2 334.35L1211.63 348.45H1222.42L1209.03 326.25L1221.4 305.6Z" fill="black"/>
<path id="sign_3" d="M1225.8 338.25H1253.46V330.75H1225.8V338.25Z" fill="black"/>
<path id="sign_4" d="M1225.8 323H1253.46V315.5H1225.8V323Z" fill="black"/>
</g>
</g>
</g>
<g id="maths-graphic-svgrepo-com 1">
<g id="Group_29">
<path id="Vector_8" d="M1291.82 905.551H1057.36V702.224C1057.36 698.784 1054.14 696 1050.18 696C1046.21 696 1043 698.784 1043 702.224V911.776C1043 915.216 1046.21 918 1050.18 918H1291.82C1295.79 918 1299 915.216 1299 911.776C1299 908.34 1295.78 905.551 1291.82 905.551Z" fill="#010002"/>
<path id="chart" d="M1100.94 847.114L1080 880.31C1078.1 883.327 1079.38 887.107 1082.85 888.758C1083.95 889.277 1085.13 889.522 1086.29 889.522C1088.83 889.522 1091.29 888.352 1092.59 886.281L1113.53 853.085C1116.93 847.682 1121.26 843.387 1125.9 840.62C1126.64 840.732 1127.39 840.819 1128.16 840.819C1131.95 840.819 1135.35 839.42 1137.76 837.205C1141.2 837.304 1144.33 838.433 1147.08 840.653C1153.68 845.973 1161.68 847.89 1169.61 846.043C1181.34 843.313 1191.2 832.881 1196.65 817.428L1203.56 797.846C1206.03 790.871 1208.57 786.418 1210.69 783.605C1212.18 784.111 1213.79 784.414 1215.49 784.414C1216.34 784.414 1217.16 784.327 1217.97 784.198L1229.34 805.042C1231.03 808.145 1235.31 809.473 1238.9 808.004C1242.48 806.531 1244.02 802.822 1242.32 799.714L1229.76 776.7C1229.36 775.97 1228.93 775.377 1228.51 774.75C1228.62 774.157 1228.72 773.563 1228.72 772.945C1228.72 766.613 1222.8 761.476 1215.49 761.476C1208.24 761.476 1202.36 766.546 1202.28 772.82C1197.48 777.426 1193.23 784.597 1189.83 794.199L1182.92 813.78C1178.31 826.847 1171.09 832.798 1165.88 834.014C1162.78 834.744 1159.82 833.926 1156.85 831.528C1152.11 827.706 1146.41 825.474 1140.35 824.897C1138.34 820.772 1133.64 817.876 1128.15 817.876C1120.85 817.876 1114.93 823.009 1114.93 829.345C1114.93 830.238 1115.07 831.092 1115.29 831.926C1109.81 835.719 1104.89 840.856 1100.94 847.114Z" fill="#010002"/>
</g>
</g>
</svg>
